<svg xmlns="http://www.w3.org/2000/svg" style="display: none;">
  
    <symbol id="icon-star" viewBox="0 0 512 512">
      <path d="m480 192l-157-20-67-140-67 140-157 20 115 104-29 152 138-74 139 74-30-152z"/>
    </symbol>
  
    <symbol id="icon-reply" viewBox="0 0 512 512">
      <path d="m512 320c0 32-12 75-36 129-1 1-2 3-3 7-2 3-3 6-4 8-1 3-3 5-4 7-2 3-5 4-8 4-3 0-5-1-7-2-1-2-2-5-2-8 0-1 0-4 1-7 0-3 0-6 0-7 1-13 2-25 2-35 0-19-2-36-5-52-3-15-8-28-14-39-6-11-14-21-23-29-9-8-19-15-30-20-11-5-23-9-38-12-15-3-29-5-44-6-15-1-31-2-50-2l-64 0 0 73c0 5-2 9-6 13-3 4-7 5-12 5-5 0-10-1-13-5l-147-146c-3-4-5-8-5-13 0-5 2-9 5-13l147-146c3-4 8-6 13-6 5 0 9 2 12 6 4 3 6 8 6 13l0 73 64 0c136 0 219 38 250 115 10 25 15 57 15 95z"/>
    </symbol>
  
</svg>
